Coordinates
version=1
nRows=60
nColumns=12
inDegrees=yes

Units are S.I. units (second, meters, Newtons, ...)
Angles are in degrees

endheader
time	SC_y	SC_z	SC_x	AC_y	AC_z	AC_x	GH_y	GH_z	GH_yy	EL_x	PS_y
       0.0               -24.7          7.595           59.5          35.86         -8.068          -14.8          28.67         -19.87          14.28          51.89          38.53
   0.03059               -24.7          7.595          59.49          35.86         -8.067          -14.8          28.69         -19.87           14.3          51.89          38.55
   0.06118              -24.71          7.594          59.49          35.86         -8.067         -14.79          28.71         -19.86          14.32          51.89          38.56
   0.09178              -24.71          7.593          59.49          35.86         -8.066         -14.79          28.73         -19.86          14.34          51.89          38.58
    0.1224              -24.71          7.592          59.49          35.87         -8.065         -14.78          28.75         -19.86          14.36          51.89           38.6
     0.153              -24.72          7.591          59.48          35.87         -8.064         -14.78          28.77         -19.85          14.39          51.89          38.62
    0.1836              -24.72           7.59          59.48          35.87         -8.063         -14.77          28.79         -19.85          14.41          51.88          38.64
    0.2141              -24.73          7.589          59.48          35.87         -8.061         -14.77          28.82         -19.85          14.44          51.88          38.66
    0.2447              -24.73          7.588          59.47          35.88          -8.06         -14.76          28.84         -19.84          14.46          51.88          38.69
    0.2753              -24.74          7.587          59.47          35.88         -8.059         -14.75          28.87         -19.84          14.49          51.88          38.71
    0.3059              -24.74          7.585          59.47          35.88         -8.057         -14.75           28.9         -19.83          14.53          51.88          38.74
    0.3365              -24.75          7.584          59.46          35.89         -8.056         -14.74          28.94         -19.82          14.56          51.87          38.77
    0.3671              -24.76          7.582          59.46          35.89         -8.054         -14.73          28.97         -19.82           14.6          51.87          38.81
    0.3977              -24.77          7.581          59.45          35.89         -8.052         -14.72          29.01         -19.81          14.64          51.87          38.84
    0.4283              -24.77          7.579          59.45           35.9          -8.05         -14.71          29.05          -19.8          14.68          51.87          38.88
    0.4589              -24.78          7.577          59.44           35.9         -8.048          -14.7           29.1          -19.8          14.73          51.86          38.92
    0.4895              -24.79          7.575          59.44          35.91         -8.046         -14.69          29.15         -19.79          14.78          51.86          38.97
    0.5201               -24.8          7.573          59.43          35.92         -8.043         -14.68           29.2         -19.78          14.84          51.86          39.02
    0.5507              -24.81           7.57          59.42          35.92          -8.04         -14.66          29.26         -19.77           14.9          51.85          39.07
    0.5813              -24.83          7.567          59.42          35.93         -8.037         -14.65          29.32         -19.76          14.96          51.85          39.13
    0.6118              -24.84          7.564          59.41          35.94         -8.034         -14.63          29.39         -19.74          15.04          51.84          39.19
    0.6424              -24.86          7.561           59.4          35.94         -8.031         -14.62          29.47         -19.73          15.12          51.84          39.26
     0.673              -24.87          7.557          59.39          35.95         -8.026          -14.6          29.55         -19.72          15.21          51.83          39.34
    0.7036              -24.89          7.553          59.37          35.96         -8.022         -14.57          29.65          -19.7          15.31          51.83          39.43
    0.7342              -24.91          7.549          59.36          35.98         -8.017         -14.55          29.75         -19.68          15.42          51.82          39.53
    0.7648              -24.93          7.544          59.35          35.99         -8.011         -14.52          29.87         -19.66          15.54          51.81          39.63
    0.7954              -24.96          7.538          59.33           36.0         -8.005         -14.49           30.0         -19.64          15.68           51.8          39.75
     0.826              -24.99          7.532          59.31          36.02         -7.998         -14.46          30.15         -19.61          15.83          51.79          39.89
    0.8566              -25.02          7.525          59.29          36.04          -7.99         -14.42          30.32         -19.58          16.01          51.78          40.04
    0.8872              -25.06          7.517          59.27          36.06         -7.981         -14.37          30.51         -19.55           16.2          51.77          40.22
    0.9178               -25.1          7.507          59.24          36.08         -7.971         -14.32          30.72         -19.51          16.43          51.75          40.42
    0.9484              -25.15          7.497          59.21          36.11         -7.959         -14.27          30.97         -19.47          16.69          51.73          40.65
    0.9789              -25.21          7.484          59.18          36.14         -7.946          -14.2          31.26         -19.42          16.99          51.71          40.91
      1.01              -25.27           7.47          59.13          36.18          -7.93         -14.12          31.59         -19.36          17.34          51.69          41.22
      1.04              -25.35          7.453          59.09          36.22         -7.912         -14.03          31.98         -19.29          17.75          51.67          41.57
     1.071              -25.44          7.434          59.03          36.27          -7.89         -13.93          32.44         -19.21          18.23          51.63           42.0
     1.101              -25.55           7.41          58.96          36.33         -7.864          -13.8          32.98         -19.11           18.8           51.6           42.5
     1.132              -25.68          7.382          58.88           36.4         -7.833         -13.65          33.64          -19.0          19.49          51.55           43.1
     1.163              -25.83          7.348          58.78          36.49         -7.796         -13.47          34.43         -18.86          20.32           51.5          43.83
     1.193              -26.02          7.307          58.66           36.6          -7.75         -13.24          35.39         -18.69          21.33          51.43          44.72
     1.224              -26.26          7.256          58.52          36.73         -7.693         -12.96          36.58         -18.48          22.58          51.35          45.82
     1.254              -26.55          7.192          58.33          36.89         -7.623         -12.62          38.07         -18.22          24.14          51.25          47.19
     1.285              -26.92          7.112           58.1           37.1         -7.534         -12.19          39.94         -17.89           26.1          51.12          48.91
     1.315              -27.39          7.009          57.81          37.36         -7.422         -11.63          42.33         -17.47           28.6          50.96          51.11
     1.346              -27.99          6.879          57.43           37.7         -7.277         -10.93          45.37         -16.94          31.79          50.75          53.91
     1.377              -28.76          6.711          56.95          38.13         -7.092         -10.02          49.28         -16.25          35.89          50.48          57.51
     1.407              -29.75          6.496          56.33          38.68         -6.855         -8.861          54.28         -15.37          41.13          50.14          62.12
     1.438              -30.99          6.227          55.55          39.38         -6.558         -7.404          60.56         -14.27          47.72          49.71           67.9
     1.468               -32.5          5.898           54.6          40.22         -6.195         -5.628          68.22         -12.92          55.74          49.18          74.95
     1.499              -34.25          5.517          53.51           41.2         -5.775          -3.57          77.09         -11.36          65.04          48.58          83.12
      1.53              -36.15          5.105          52.32          42.26          -5.32         -1.342           86.7         -9.675          75.11          47.92          91.97
      1.56              -38.04          4.693          51.13          43.32         -4.865         0.8866           96.3         -7.986          85.19          47.26          100.8
     1.591              -39.79          4.312          50.03           44.3         -4.445          2.945          105.2         -6.427          94.49          46.65          109.0
     1.621               -41.3          3.983          49.09          45.15         -4.082           4.72          112.8         -5.082          102.5          46.13          116.0
     1.652              -42.54          3.714          48.31          45.84         -3.785          6.177          119.1         -3.978          109.1           45.7          121.8
     1.683              -43.53            3.5          47.69          46.39         -3.548          7.336          124.1           -3.1          114.3          45.36          126.4
     1.713               -44.3          3.332          47.21          46.82         -3.363          8.243          128.0         -2.413          118.4          45.09          130.0
     1.744               -44.9          3.201          46.83          47.16         -3.218           8.95          131.1         -1.878          121.6          44.88          132.8
     1.774              -45.37          3.099          46.54          47.42         -3.106          9.502          133.4         -1.459          124.1          44.72          135.0
     1.805              -45.74          3.018           46.3          47.63         -3.017          9.936          135.3          -1.13          126.1          44.59          136.8
